<svg width="107" height="32" viewBox="0 0 107 32" fill="none" xmlns="http://www.w3.org/2000/svg">
<g id="logo">
<g id="Group">
<path id="Union" fill-rule="evenodd" clip-rule="evenodd" d="M58.8116 14.2026C58.8116 12.8872 58.5061 11.8687 57.9271 11.1238C57.3578 10.3967 56.4871 10.0189 55.2735 10.0189C54.0665 10.0189 53.1085 10.4147 52.3358 11.2029L52.3354 11.2033C51.5673 11.9826 51.1714 13.1094 51.1714 14.62V14.8485H51.1629V23.6985H48.6002V14.2026C48.6002 12.8647 48.2941 11.8434 47.7168 11.1125C47.1484 10.3982 46.2695 10.0232 45.0324 10.0232C43.8031 10.0232 42.8418 10.4197 42.0785 11.2063C41.3188 11.9892 40.9261 13.0599 40.9261 14.4453V23.7028H38.3633V8.07544H40.837V9.8406C41.2734 9.2412 41.8009 8.76551 42.4204 8.41755C43.2571 7.94759 44.2491 7.71769 45.3886 7.71769C46.615 7.71769 47.6665 7.96783 48.531 8.48036C49.2889 8.9297 49.8917 9.57402 50.3402 10.4049C50.8207 9.70575 51.4662 9.10575 52.2744 8.60366C53.2273 8.01162 54.3473 7.71769 55.6297 7.71769C57.4401 7.71769 58.87 8.28517 59.8807 9.44844C60.8807 10.5994 61.3744 12.0524 61.3744 13.7852V23.6985H58.8116V14.2026Z" fill="white"/>
<path id="Union_2" fill-rule="evenodd" clip-rule="evenodd" d="M79.4088 23.7028V8.07544H76.935V10.2969C75.7326 8.5728 73.8847 7.71769 71.4378 7.71769C69.1605 7.71769 67.3495 8.51709 66.0373 10.1267C64.7325 11.7221 64.0859 13.653 64.0859 15.9062C64.0859 18.1593 64.7325 20.0864 66.038 21.6694C67.3544 23.2656 69.165 24.0605 71.4378 24.0605C72.8115 24.0605 74.0002 23.7917 74.995 23.2428C75.7655 22.8177 76.412 22.2286 76.935 21.4797V23.7028H79.4088ZM68.0918 11.7438L68.1457 11.6799V11.6769C69.0721 10.6156 70.2952 10.0786 71.8491 10.0786C73.4346 10.0786 74.6605 10.629 75.5624 11.7247C76.4733 12.8316 76.935 14.2341 76.935 15.9019C76.935 17.5686 76.4739 18.9417 75.5624 20.0492C74.6606 21.1449 73.4305 21.6954 71.8491 21.6954C70.2679 21.6954 69.0234 21.1448 68.0913 20.0466C67.1514 18.9392 66.6784 17.5629 66.6784 15.9019C66.6784 14.2409 67.1514 12.86 68.0918 11.7438Z" fill="white"/>
<path id="Union_3" fill-rule="evenodd" clip-rule="evenodd" d="M91.2192 10.4321V7.96924L90.4937 7.92638H90.487C89.2109 7.92638 88.1353 8.18351 87.2795 8.71904C86.7077 9.07682 86.2376 9.47415 85.8761 9.91417V8.07118H83.4023V23.6985H85.9651V14.8585C85.9651 13.371 86.3684 12.2716 87.1422 11.5222C87.9238 10.7653 88.9534 10.3809 90.2495 10.3809C90.5034 10.3809 90.7423 10.3893 90.9714 10.4099L91.2192 10.4321ZM85.6485 10.6549C85.7161 10.5304 85.792 10.4087 85.8761 10.2897C86.235 9.78176 86.7436 9.32364 87.3999 8.91304C87.5011 8.84968 87.6058 8.79033 87.7139 8.73495C87.6058 8.79032 87.5011 8.84969 87.3999 8.91304C86.5899 9.41984 86.0047 9.99905 85.6485 10.6549V10.6549ZM83.6299 8.29975H83.6299V23.47L83.6299 23.47V8.29975Z" fill="white"/>
<path id="Union_4" fill-rule="evenodd" clip-rule="evenodd" d="M95.4905 8.07544H92.9277V17.7204C92.9277 19.5585 93.4785 21.0824 94.5925 22.2722C95.7162 23.4725 97.3364 24.0563 99.4187 24.0563C101.501 24.0563 103.121 23.4725 104.245 22.2722C105.359 21.0824 105.91 19.5585 105.91 17.7204V8.07544H103.347V17.5714C103.347 18.9253 103.001 19.945 102.339 20.6659C101.681 21.3818 100.723 21.755 99.4187 21.755C98.1149 21.755 97.1568 21.3818 96.4988 20.6659C95.8362 19.945 95.4905 18.9253 95.4905 17.5714V8.07544ZM94.7591 22.1165C94.7588 22.1162 94.7586 22.1159 94.7583 22.1156C93.6897 20.9742 93.1553 19.5092 93.1553 17.7204V8.30401L95.2629 8.30401H93.1553V17.7204C93.1553 19.5092 93.6896 20.9742 94.7583 22.1156C94.7585 22.1159 94.7588 22.1162 94.7591 22.1165ZM99.4187 21.9836C99.4187 21.9836 99.4187 21.9836 99.4187 21.9836C99.503 21.9836 99.586 21.9821 99.6678 21.9791C99.586 21.9821 99.503 21.9836 99.4187 21.9836ZM103.575 8.30401H105.682L103.575 8.30401L103.575 17.5714V8.30401Z" fill="white"/>
</g>
<g id="Group 3">
<path id="Subtract" fill-rule="evenodd" clip-rule="evenodd" d="M17.9306 3.1409L26.4473 7.85861C27.1729 8.25828 27.6684 8.98318 27.7816 9.81388L29.229 20.4679C29.4123 21.8315 28.7452 23.1677 27.5475 23.822L18.6796 28.6769C16.1555 30.0601 13.1085 30.0601 10.5804 28.6769L1.71258 23.822C0.514858 23.1677 -0.156178 21.8315 0.0310883 20.4679L1.4785 9.81388C1.59164 8.9871 2.08711 8.2622 2.81277 7.85861L11.3295 3.1409C13.3855 2.00065 15.8746 2.00065 17.9306 3.1409ZM12.9368 7.42368L8.41123 9.90792H8.41513C7.59974 10.3546 7.60365 11.5262 8.41903 11.969L12.9758 14.4415C13.9746 14.9861 15.1762 14.9822 16.1711 14.4415L20.919 11.8553C21.6369 11.4635 21.6408 10.4291 20.919 10.0333L16.1516 7.42368C15.1489 6.8751 13.9395 6.8751 12.9368 7.42368Z" fill="url(#paint0_linear_6147_1780)"/>
</g>
</g>
<defs>
<linearGradient id="paint0_linear_6147_1780" x1="14.6295" y1="2.28571" x2="14.6295" y2="29.7143" gradientUnits="userSpaceOnUse">
<stop stop-color="#09C4FF"/>
<stop offset="0.809186" stop-color="#257CFF"/>
</linearGradient>
</defs>
</svg>
