<svg width="18" height="16" viewBox="0 0 18 16" fill="none" xmlns="http://www.w3.org/2000/svg">
<path id="arrow_forward" d="M9.06929 15.7096C8.87567 15.516 8.77446 15.2695 8.76566 14.9703C8.75686 14.6711 8.84927 14.4246 9.04289 14.231L14.2178 9.05611H1.24751C0.948282 9.05611 0.697457 8.9549 0.495037 8.75248C0.292616 8.55006 0.191406 8.29923 0.191406 8C0.191406 7.70077 0.292616 7.44994 0.495037 7.24752C0.697457 7.0451 0.948282 6.94389 1.24751 6.94389H14.2178L9.04289 1.76898C8.84927 1.57536 8.75686 1.32893 8.76566 1.0297C8.77446 0.730473 8.87567 0.484048 9.06929 0.290429C9.26291 0.0968097 9.50934 0 9.80857 0C10.1078 0 10.3542 0.0968097 10.5478 0.290429L17.5181 7.26073C17.6237 7.34873 17.6986 7.45875 17.7426 7.59076C17.7866 7.72277 17.8086 7.85919 17.8086 8C17.8086 8.14081 17.7866 8.27283 17.7426 8.39604C17.6986 8.51925 17.6237 8.63366 17.5181 8.73927L10.5478 15.7096C10.3542 15.9032 10.1078 16 9.80857 16C9.50934 16 9.26291 15.9032 9.06929 15.7096Z" fill="white"/>
</svg>
